<?xml version="1.0" encoding="UTF-8" standalone="no"?>
<svg
   xmlns:dc="http://purl.org/dc/elements/1.1/"
   xmlns:cc="http://creativecommons.org/ns#"
   xmlns:rdf="http://www.w3.org/1999/02/22-rdf-syntax-ns#"
   xmlns:svg="http://www.w3.org/2000/svg"
   xmlns="http://www.w3.org/2000/svg"
   xmlns:sodipodi="http://sodipodi.sourceforge.net/DTD/sodipodi-0.dtd"
   xmlns:inkscape="http://www.inkscape.org/namespaces/inkscape"
   version="1.0"
   width="177.82742pt"
   height="233.30028pt"
   viewBox="0 0 177.82742 233.30028"
   preserveAspectRatio="xMidYMid meet"
   id="svg3450"
   inkscape:version="0.91 r13725"
   sodipodi:docname="bamboo-snow-logo-bw.svg">
  <defs
     id="defs3524">
    <inkscape:path-effect
       effect="bend_path"
       id="path-effect3890"
       is_visible="true"
       bendpath="M 0,8.55303 26.8604,0"
       prop_scale="1"
       scale_y_rel="false"
       vertical="false"
       bendpath-nodetypes="cc" />
    <inkscape:path-effect
       effect="gears"
       id="path-effect3888"
       is_visible="true"
       teeth="10"
       phi="5" />
    <inkscape:path-effect
       effect="bend_path"
       id="path-effect3886"
       is_visible="true"
       bendpath="m 125.8,140.47294 26.53966,-6.20095"
       prop_scale="0.98"
       scale_y_rel="false"
       vertical="false"
       bendpath-nodetypes="cc" />
  </defs>
  <sodipodi:namedview
     pagecolor="#ffffff"
     bordercolor="#666666"
     borderopacity="1"
     objecttolerance="10"
     gridtolerance="10"
     guidetolerance="10"
     inkscape:pageopacity="0"
     inkscape:pageshadow="2"
     inkscape:window-width="871"
     inkscape:window-height="680"
     id="namedview3522"
     showgrid="false"
     inkscape:zoom="1.3227723"
     inkscape:cx="137.57412"
     inkscape:cy="159.02364"
     inkscape:window-x="0"
     inkscape:window-y="1"
     inkscape:window-maximized="0"
     inkscape:current-layer="svg3450"
     showborder="false"
     fit-margin-top="0"
     fit-margin-left="0"
     fit-margin-right="0"
     fit-margin-bottom="0" />
  <metadata
     id="metadata3452">
Created by potrace 1.10, written by Peter Selinger 2001-2011
<rdf:RDF>
  <cc:Work
     rdf:about="">
    <dc:format>image/svg+xml</dc:format>
    <dc:type
       rdf:resource="http://purl.org/dc/dcmitype/StillImage" />
    <dc:title></dc:title>
  </cc:Work>
</rdf:RDF>
</metadata>
  <g
     id="g3403"
     transform="translate(-53.051882,142.96606)">
    <path
       inkscape:connector-curvature="0"
       d="m 65.2,-136.6 c 0.3,5.3 1,7.3 4.1,12 3.6,5.4 10.7,11.6 13.2,11.6 3.6,0 -4.1,-18.4 -10.5,-25.4 -6,-6.5 -7.3,-6.2 -6.8,1.8 z m 12.3,9.1 c 6.2,13.2 5.4,15.9 -2.3,7.9 -5.3,-5.6 -9.2,-13.5 -9.2,-18.9 l 0,-3.9 4.1,3.9 c 2.2,2.2 5.5,7.1 7.4,11 z"
       id="center-leaf"
       style="fill:#000000;stroke:none">
      <desc
         id="desc3666">Accent Center Leaf</desc>
    </path>
    <path
       inkscape:connector-curvature="0"
       d="m 85.6,-132.8 c -0.9,2.1 -1.3,5.8 -1.1,9.8 0.2,3.6 0.4,7.1 0.4,7.9 0.2,2.8 4.9,-3.1 5.6,-6.8 0.6,-3.9 -1.1,-12.7 -2.6,-13.7 -0.5,-0.3 -1.6,1 -2.3,2.8 z"
       id="right-leaf"
       style="fill:#000000;stroke:none">
      <desc
         id="desc3670">right accent leaf</desc>
    </path>
    <path
       inkscape:connector-curvature="0"
       d="m 124.5,-127.3 c -10.3,2.2 -21.4,6.8 -30,12.3 -4.1,2.7 -7.5,5.2 -7.5,5.5 0,0.3 2.6,4 5.7,8.3 3.2,4.2 5.8,7.9 6,8.1 0.1,0.2 1.4,-0.6 3,-1.7 10.8,-7.6 23.7,-11.5 38.3,-11.6 12.8,-0.1 18.8,1.3 30.5,6.9 17.6,8.5 30.2,23.6 35.5,42.9 0.9,3.3 2.1,6.1 2.6,6.3 0.5,0.2 3.8,-5.9 7.3,-13.4 l 6.4,-13.7 -2.4,-4.6 c -9.4,-17.7 -26.7,-33.2 -45.9,-40.9 -15.1,-6 -34.2,-7.7 -49.5,-4.4 z m 32,0.8 c 17.5,3.1 33.8,11.6 46.7,24.4 6.9,7 16.8,21.3 16.8,24.4 0,1 -2.6,7.2 -5.7,13.8 l -5.7,12 -1.3,-5.3 c -7.4,-29 -36.2,-50.9 -67,-50.8 -11.5,0 -20.5,2.3 -31.6,7.8 l -9.7,4.9 -5,-6.9 c -2.8,-3.8 -4.8,-7.3 -4.5,-7.8 1.1,-1.9 14.5,-9.2 21.9,-12.1 14.4,-5.6 29.6,-7.1 45.1,-4.4 z"
       id="top-bamboo"
       style="fill:#000000;stroke:none">
      <desc
         id="desc3664">Top of bamboo halo</desc>
    </path>
    <path
       inkscape:connector-curvature="0"
       d="m 61.8,-115.8 c -1.6,0.5 -2.8,1.3 -2.8,1.6 0,1.5 11.3,5.2 16,5.2 5.5,0 6.8,-1 4.2,-3.2 -5,-4.4 -11.6,-5.8 -17.4,-3.6 z m 9.2,2.7 c 0,0.5 -0.9,0.7 -2,0.4 -1.1,-0.3 -2,-0.7 -2,-0.9 0,-0.2 0.9,-0.4 2,-0.4 1.1,0 2,0.4 2,0.9 z"
       id="left-leaf"
       style="fill:#000000;stroke:none">
      <desc
         id="desc3672">Left Side of Accent leaf</desc>
    </path>
    <path
       inkscape:connector-curvature="0"
       d="m 77.3,-100.6 c -13.6,14.8 -22.3,34.7 -23.9,54.7 -0.6,6.9 -0.5,7.9 0.9,7.9 0.9,0 5.8,-4 11,-8.9 7.9,-7.6 9.5,-9.8 11,-14.3 2.3,-7.3 8.2,-17.1 14.4,-23.8 l 5.2,-5.6 -6.5,-7.7 c -3.6,-4.2 -6.7,-7.7 -6.8,-7.7 -0.2,0 -2.6,2.4 -5.3,5.4 z m 12,4.6 4.5,5.4 -5.3,5.9 c -5.3,5.8 -12.1,17.6 -14.4,24.9 -0.8,2.5 -4,6.3 -9.9,11.9 l -8.7,8.3 -0.3,-5.7 c -0.4,-7.6 2.9,-21 7.7,-31.3 4.5,-9.5 8,-14.8 14.6,-22.2 5.4,-6 4.5,-6.2 11.8,2.8 z"
       id="left-bamboo"
       style="fill:#000000;stroke:none">
      <desc
         id="desc3668">Left side of bamboo halo</desc>
    </path>
    <path
       inkscape:connector-curvature="0"
       d="m 128.6,-97.1 c -0.3,0.4 -6.5,2.8 -13.7,5.1 -12.7,4.2 -13.4,4.6 -20.2,10.9 -6.6,6.3 -11.7,14.1 -11.7,18.3 0,2.1 -13.2,16.1 -21.5,22.9 -3.5,2.8 -6.6,5.9 -6.7,6.8 -0.2,0.9 1.3,4.5 3.3,8.1 2,3.6 6.7,12.1 10.4,19 3.8,6.9 10.2,17.4 14.2,23.4 11.3,16.6 30.1,37 37.9,41.2 l 3.9,2 0,9 c 0,11.5 1.2,13.6 9.2,15.8 3.2,0.9 7.5,2.3 9.7,3.1 l 3.8,1.4 -0.5,-4.7 c -0.8,-5.9 1,-8.8 4.7,-7.8 3.3,0.8 5.5,4.2 5.7,8.6 0.4,5.3 0.8,5.5 4.5,1.9 1.9,-1.8 3.4,-3 3.4,-2.6 0,0.9 9.3,-6.2 10.3,-7.9 0.4,-0.7 1.4,-1.1 2.1,-0.8 2.7,1 5.6,-4.5 5.6,-10.5 0,-6.4 1.3,-8.9 6.4,-12 1.9,-1.2 4.1,-3.2 5,-4.5 1.4,-2.2 1.4,-2.9 -0.4,-8.4 -1.1,-3.2 -3.6,-9.7 -5.5,-14.3 -5.4,-12.6 -10.7,-30.6 -11.2,-38 -0.4,-5.8 -0.1,-7.4 2.2,-12 2.6,-5 2.7,-5.8 1.9,-12.4 -0.5,-3.8 -0.9,-12.8 -0.9,-19.9 l 0,-12.9 -3.5,-1.5 c -4.7,-1.8 -9.4,-6.5 -13.6,-13.4 -4.2,-6.9 -9.1,-9.6 -17.9,-9.9 -4.5,-0.1 -6.8,-0.8 -9.2,-2.5 -3.2,-2.4 -6.7,-3.1 -7.7,-1.5 z m 6.8,2.6 c 2.6,2 4.4,2.5 9.1,2.5 8.2,0 13.8,2.9 17.2,8.8 3.6,6.4 10,13 14,14.3 l 3.3,1.1 0,11.9 c 0,6.6 0.5,15 1.1,18.7 1,6.3 1,7 -1.6,12.7 -3.7,8.3 -4.2,14.7 -1.7,21 1,2.7 2.5,7.5 3.2,10.5 0.7,3 3.3,10.4 5.8,16.5 2.5,6 5.3,13.9 6.3,17.5 l 1.8,6.5 -6,5.5 -6,5.5 -0.6,7 C 180.8,72.6 179,77 179,71.4 l -0.1,-2.9 -1.4,3 c -1.8,3.9 -4.3,6.8 -7.8,9 -2.6,1.7 -2.7,1.7 -2.1,-0.1 0.3,-1.1 -1.1,0 -3.1,2.3 -3.9,4.5 -5.5,5.3 -5.5,2.8 0,-0.9 -0.8,-3 -1.7,-4.8 -0.9,-1.8 -1.6,-3.7 -1.4,-4.2 0.1,-0.6 0,-0.7 -0.4,-0.3 -0.4,0.3 -2,0.2 -3.6,-0.4 -2.4,-0.8 -3.4,-0.7 -4.9,0.7 -2.4,2.2 -3.3,6.1 -1.9,8.7 1,1.9 0.9,2 -0.7,1.3 -1.1,-0.4 -4.1,-1.3 -6.9,-1.9 -9.7,-2.4 -12,-4.9 -10.9,-12.1 0.3,-2.5 0.3,-6.5 -0.1,-9 -0.6,-4.1 -1,-4.7 -5.3,-7 -2.6,-1.3 -6.8,-4.3 -9.3,-6.7 C 105.7,44.1 90.4,26 85.3,18.5 74.1,1.9 55.6,-31.5 56.6,-33.2 c 0.4,-0.6 2.5,-2.6 4.8,-4.6 8.8,-7.6 21.3,-21.1 22.5,-24.3 3.4,-9.1 5,-11.5 11.6,-17.8 6.5,-6.2 7.9,-7 16.1,-9.5 4.9,-1.5 11.2,-3.8 13.9,-5.1 6.3,-3 6,-3 9.9,0 z"
       id="hair"
       style="fill:#000000;stroke:none">
      <desc
         id="desc3674">outermost hair and beard outline</desc>
    </path>
    <path
       inkscape:connector-curvature="0"
       d="m 142.4,-68.9 c -3.2,1.8 -11.7,7.1 -18.9,12 -7.1,4.8 -16.4,10.2 -20.5,11.9 -4.4,1.8 -6.2,2.9 -4.3,2.6 1.8,-0.3 5.2,-1.5 7.5,-2.6 5.1,-2.5 5.5,-2.5 3.5,-0.2 -5.2,5.8 -10.1,25.7 -7.9,31.9 0.9,2.4 1.1,1.9 1.1,-3.9 0.1,-7.8 2.4,-17.7 5.5,-23.2 1.1,-2.1 2.5,-4.6 3,-5.5 0.5,-0.9 3.8,-3.7 7.4,-6.1 3.6,-2.5 9.1,-6.2 12.1,-8.3 3.1,-2.1 8.7,-5.4 12.5,-7.3 6.2,-3.2 7.3,-3.5 11.5,-2.7 3.4,0.6 4.9,1.4 5.8,3.3 0.9,1.8 1.3,2 1.3,0.7 0,-0.9 -0.9,-2.6 -2,-3.7 -3.2,-3.2 -10.4,-2.7 -17.6,1.1 z"
       id="left-face"
       style="fill:#000000;stroke:none">
      <desc
         id="desc3698">left side of face outline</desc>
    </path>
    <path
       inkscape:connector-curvature="0"
       d="m 163,-64 c 0,0.6 0.4,0.9 0.9,0.6 1.6,-1 3.9,0.5 5.1,3.3 2.1,5.1 1.8,23.1 -0.3,23.1 -0.8,0 -2.2,0.9 -3.2,2 -1.4,1.6 -1.5,2 -0.4,2.4 5.1,1.6 5,1.2 2.2,5.5 l -2.6,4 -2.5,-2 c -2.2,-1.7 -2.8,-1.8 -4.6,-0.5 -1.2,0.7 -2.3,2.2 -2.5,3.2 -0.3,1.6 0,1.5 1.6,-0.5 1.5,-1.8 2.5,-2.2 3.9,-1.6 1.8,0.8 1.8,0.8 -0.1,1.3 -1.1,0.2 -2.4,0.9 -3,1.4 -0.7,0.7 -0.1,0.8 2,0.4 1.6,-0.4 3.4,-0.8 4,-0.9 0.6,-0.1 1.1,2.6 1.3,6.2 0.3,5.5 0,6.7 -2,8.8 -1.2,1.3 -3.4,4.5 -4.8,7.1 -3,5.6 -6.2,6.5 -11.4,3.3 -1.8,-1.2 -4.5,-2.1 -5.9,-2.1 -1.4,0 -2.9,-0.5 -3.2,-1 -0.3,-0.6 -2.1,-1 -3.8,-1 -1.8,0 -4.1,-0.7 -5.1,-1.5 -1.1,-0.8 -2.8,-1.5 -3.8,-1.5 -1,0 -2.1,-0.8 -2.5,-1.8 -0.8,-2.2 -9.4,-10.3 -10.3,-9.7 -1.2,0.7 -2.9,-1.9 -5,-7.2 -1.1,-2.6 -1.9,-4 -2,-3 -0.1,4.1 3.1,8.7 9.4,13.7 3.6,2.9 6.7,5.6 6.7,6.1 0.1,0.5 0.2,1.5 0.3,2.1 0,0.7 1.5,1.5 3.1,1.6 1.7,0.2 3.7,1 4.6,1.8 1,0.9 2.6,1.3 4.1,0.9 1.6,-0.4 2.9,-0.1 3.7,0.9 0.8,1 2.2,1.4 3.5,1 1.4,-0.3 3.2,0.3 4.9,1.7 2.7,2 9.3,2.9 11.6,1.5 1.6,-1 4.1,0.5 4.1,2.5 0,1.1 0.9,3.7 2,5.9 1.1,2.2 1.7,4.6 1.3,5.6 -0.5,1.2 -0.3,1.5 0.6,0.9 1.4,-0.8 1.2,-2.4 -1.8,-10.5 -1.4,-3.9 -2.5,-5.6 -4,-5.8 -1.9,-0.3 -1.9,-0.3 0.2,-4 1.1,-2 3.1,-5 4.4,-6.5 1.9,-2.4 2.3,-4 2.3,-9.6 0,-5.7 0.4,-7.4 2.9,-11.3 2.7,-4.2 2.9,-5.2 2.6,-12.4 -0.2,-7.6 -0.2,-7.7 0.8,-3.2 0.6,2.7 1.3,4.8 1.7,4.8 1.3,0 -3.1,-21.5 -4.9,-24 -1.9,-2.6 -6.1,-4 -6.1,-2 z m 6.8,30.4 c 0.3,1.5 0.1,1.6 -1.7,0.6 -1.2,-0.6 -1.9,-1.6 -1.5,-2.1 0.9,-1.5 2.8,-0.5 3.2,1.5 z"
       id="low-front-face"
       style="fill:#000000;stroke:none">
      <desc
         id="desc3702">front side of face frame</desc>
    </path>
    <g
       transform="translate(0,-183)"
       id="forehead">
      <desc
         id="desc3744">wrinkles in forehead</desc>
      <path
         style="fill:#000000;stroke:none"
         id="top-forehead"
         d="m 160,123.9 c 0,1 3.9,3.6 4.5,2.9 0.2,-0.2 -0.8,-1.1 -2.1,-2.1 -1.3,-1 -2.4,-1.3 -2.4,-0.8 z"
         inkscape:connector-curvature="0">
        <desc
           id="desc3704">wrinkle at top of forehead</desc>
      </path>
      <path
         style="fill:#000000;stroke:none"
         id="low-forehead"
         d="m 154.1,126.4 c 5.4,5.1 9.5,7.6 12.2,7.5 l 3.2,-0.1 -3.3,-0.8 c -1.8,-0.4 -5.1,-2.2 -7.2,-3.9 -2.1,-1.7 -4.2,-3.1 -4.6,-3.1 -0.4,0 -0.5,0.2 -0.3,0.4 z"
         inkscape:connector-curvature="0">
        <desc
           id="desc3708">lower wrinkle in forehead</desc>
      </path>
    </g>
    <path
       inkscape:connector-curvature="0"
       d="m 129.7,-47.3 -3.9,1.6 7.2,2.3 c 3.9,1.2 8.8,3.4 10.9,4.8 4.2,2.9 5.6,3.1 8.9,1.2 2.3,-1.2 2.3,-1.3 -3,-5.3 -2.9,-2.2 -6.3,-4.6 -7.5,-5.2 -3,-1.5 -8.1,-1.3 -12.6,0.6 z m 10.9,0.3 c 1.5,0.6 5,2.7 7.7,4.7 4.7,3.5 4.8,3.7 2.7,4.5 -1.6,0.6 -2.9,0.4 -4.4,-0.7 -1.2,-0.8 -3,-2.2 -4.1,-3 -1.1,-0.8 -4.5,-2.1 -7.5,-2.9 -5.2,-1.3 -5.4,-1.5 -3,-2.4 3.3,-1.4 5.3,-1.4 8.6,-0.2 z"
       id="left-eyebrow"
       style="fill:#000000;stroke:none">
      <desc
         id="desc3700">left, active eyebrow</desc>
    </path>
    <path
       inkscape:connector-curvature="0"
       d="m 117.2,-35.4 c -0.7,0.8 -0.9,1.4 -0.5,1.4 0.4,0 0.1,0.4 -0.7,1 -1.8,1.1 -0.6,2.5 1.6,1.6 0.9,-0.3 1.4,-1.2 1,-2.1 -0.3,-0.8 -0.1,-1.5 0.3,-1.5 0.5,0 1.2,0.6 1.4,1.2 0.4,0.8 0.6,0.9 0.6,0.2 0.2,-2.1 -2.3,-3.3 -3.7,-1.8 z"
       id="free-eye-wrinkle"
       style="fill:#000000;stroke:none">
      <desc
         id="desc3714">wrinkle next to free eye</desc>
    </path>
    <path
       inkscape:connector-curvature="0"
       d="m 61.3,-34 c -3.9,2.4 -4,3 -0.9,6.7 2.1,2.4 2.6,2.6 4.1,1.3 1,-0.8 1.5,-2.3 1.2,-3.7 -0.2,-1.3 0.2,-2.8 0.9,-3.4 1.5,-1.2 1,-2.9 -0.9,-2.9 -0.7,0 -2.7,0.9 -4.4,2 z m 3.9,0.2 c -0.7,0.7 -1.2,2.2 -1.2,3.3 0,2.9 -1,3.7 -2.7,2.4 -2.1,-1.8 -1.5,-3.7 1.5,-5.2 3.5,-1.9 3.9,-2 2.4,-0.5 z"
       id="b-amboo-snow"
       style="fill:#000000;stroke:none">
      <desc
         id="desc3678">First B</desc>
    </path>
    <path
       inkscape:connector-curvature="0"
       d="m 126.6,-33.3 -3.8,0.4 3.3,2.5 c 3.9,2.9 5.4,3.2 2,0.4 l -2.3,-2 5.6,0 c 5.6,0 5.6,0 5.6,3 0,2.7 -0.2,3 -1.9,2 -2.4,-1.2 -5.4,-1.4 -3.1,-0.1 0.8,0.5 2.5,1.2 3.6,1.5 1.9,0.6 2.2,0.2 2.6,-3 0.4,-3.1 0.1,-3.7 -2,-4.5 -1.3,-0.5 -3.1,-0.8 -4,-0.7 -0.9,0.1 -3.4,0.3 -5.6,0.5 z"
       id="free-eye"
       style="fill:#000000;stroke:none">
      <desc
         id="desc3706">free eye of 3/4 face view</desc>
    </path>
    <path
       inkscape:connector-curvature="0"
       d="m 151.1,-28.3 c -1.2,1.4 -1.9,2.8 -1.6,3.1 0.5,0.5 4.4,-3.8 4.5,-5.1 0,-1.3 -0.8,-0.7 -2.9,2 z"
       id="upper-nose-crease"
       style="fill:#000000;stroke:none">
      <desc
         id="desc3710">crease of nose between eyes</desc>
    </path>
    <path
       inkscape:connector-curvature="0"
       d="m 66,-24.1 c -2.1,1.7 -2.3,2.2 -1.2,4.5 1.2,2.6 1.3,2.6 4.2,1.1 3.1,-1.6 3.9,-4.2 1.8,-6.3 -1.6,-1.6 -1.8,-1.5 -4.8,0.7 z m 4.6,1.3 c 0.7,1 -2,3.8 -3.8,3.8 -1.2,0 -1,-2.4 0.4,-3.8 1.5,-1.5 2.5,-1.5 3.4,0 z"
       id="b-a-mboo-snow"
       style="fill:#000000;stroke:none">
      <desc
         id="desc3680">the a in bamboo snow</desc>
    </path>
    <path
       inkscape:connector-curvature="0"
       d="m 69.9,-16.2 c -1.5,1.3 -2,2.5 -1.6,3.6 0.4,1 1.1,1.4 1.7,1.1 0.9,-0.6 1.2,0 1.4,3.5 0.2,2.3 2.9,2.3 5.5,-0.1 l 2.4,-2.2 -2.1,-1.7 C 76,-13 75.4,-14 75.7,-14.4 76.4,-15 74.2,-18 73,-18 c -0.4,0 -1.8,0.8 -3.1,1.8 z m 4.1,1.8 c 0,0.9 0.7,2.2 1.7,2.9 1.8,1.3 1,3.5 -1.3,3.5 -0.8,0 -1.2,-0.5 -0.9,-1 0.3,-0.6 0.1,-1 -0.4,-1 -0.6,0 -1.1,-0.6 -1.1,-1.4 0,-0.8 -0.5,-1.6 -1.2,-1.8 -1.5,-0.5 -0.1,-2.8 1.8,-2.8 0.8,0 1.4,0.7 1.4,1.6 z"
       id="ba-m-boo-snow"
       style="fill:#000000;stroke:none">
      <desc
         id="desc3684">the M of bamboo snow</desc>
    </path>
    <path
       inkscape:connector-curvature="0"
       d="m 78.7,-5.7 c -4.2,2.4 -4.4,3.2 -1.8,6.6 2.4,3.1 5.6,2.5 5.6,-1.2 0.1,-1.5 0.6,-3.2 1.3,-3.9 3.2,-3.2 -0.4,-4.2 -5.1,-1.5 z m 2.9,3.4 c -0.1,4.2 -2.1,5.1 -4,2 -0.9,-1.5 -0.7,-2.2 1.3,-3.8 1.3,-1 2.4,-1.9 2.6,-1.9 0.1,0 0.2,1.7 0.1,3.7 z"
       id="bam-b-oo-snow"
       style="fill:#000000;stroke:none">
      <desc
         id="desc3688">Second b in bamboo snow</desc>
    </path>
    <g
       transform="translate(0,-183)"
       id="nose">
      <desc
         id="desc3736">The nose</desc>
      <path
         style="fill:#000000;stroke:none"
         id="high-nose-ridge"
         d="m 148.4,167.2 c 0.1,4.2 0.7,7.3 1.5,8 1.2,1.1 1.3,0.9 0.6,-0.7 -0.4,-1.1 -1.1,-4.7 -1.6,-8 l -0.8,-6 0.3,6.7 z"
         inkscape:connector-curvature="0">
        <desc
           id="desc3712">ridge of nose</desc>
      </path>
      <path
         style="fill:#000000;stroke:none"
         id="low-nose-a"
         d="m 135,174.6 c -1.1,1.2 -1,1.8 0.3,3.2 1.1,1 1.7,1.2 1.7,0.4 0,-0.7 -0.5,-1.2 -1.2,-1.2 -0.6,0 -0.3,-0.9 0.7,-2 1,-1.1 1.3,-2 0.8,-2 -0.6,0 -1.6,0.7 -2.3,1.6 z"
         inkscape:connector-curvature="0">
        <desc
           id="desc3716">lower part of nose - side away from ridge</desc>
      </path>
      <path
         style="fill:#000000;stroke:none"
         id="low-nose-ridge"
         d="m 151.1,177.7 c 0,0.6 -0.4,2 -0.7,3 -0.5,1.4 -0.4,1.5 0.5,0.7 0.7,-0.7 1.1,-2 0.8,-3 -0.3,-1.1 -0.5,-1.4 -0.6,-0.7 z"
         inkscape:connector-curvature="0">
        <desc
           id="desc3722">lowest part of nose ridge</desc>
      </path>
      <path
         style="fill:#000000;stroke:none"
         id="nostril-a"
         d="m 138,178.8 c 0,1 2.2,3.2 3.2,3.2 1.5,0 0.8,-1.5 -1.2,-2.8 -1.1,-0.7 -2,-0.9 -2,-0.4 z"
         inkscape:connector-curvature="0">
        <desc
           id="desc3718">nostril away from ridge</desc>
      </path>
      <path
         style="fill:#000000;stroke:none"
         id="nostril-b"
         d="m 148,180 c -0.6,1.1 -1.7,2 -2.5,2 -0.8,0 -1.5,0.4 -1.5,1 0,0.5 0.5,1 1,1 1.3,0 5,-3.7 5,-5 0,-1.6 -0.8,-1.2 -2,1 z"
         inkscape:connector-curvature="0">
        <desc
           id="desc3720">nostril, lower edge of nose</desc>
      </path>
    </g>
    <path
       inkscape:connector-curvature="0"
       d="m 82,5.5 c -2.4,2.9 0.8,7.5 4.4,6.2 3,-1.2 1.4,-7.7 -2,-7.7 -0.6,0 -1.7,0.7 -2.4,1.5 z m 3.9,1.4 c 1.7,1.1 0.7,4.5 -1.2,3.9 -1.3,-0.5 -2.3,-4.8 -1,-4.8 0.4,0 1.4,0.4 2.2,0.9 z"
       id="bamb-o-o-snow"
       style="fill:#000000;stroke:none">
      <desc
         id="desc3692">First o of bamboo snow</desc>
    </path>
    <path
       inkscape:connector-curvature="0"
       d="m 88.7,14.1 c -3.4,2 -1.4,6.9 2.9,6.9 2.3,0 4.1,-3.1 2.9,-5 -1.2,-1.9 -4,-2.9 -5.8,-1.9 z m 2.7,1.5 c 1.9,0.7 2.2,4.4 0.4,4.4 -2.3,0 -3.9,-1.6 -3.2,-3.3 0.7,-1.9 0.7,-1.9 2.8,-1.1 z"
       id="bambo-o-snow"
       style="fill:#000000;stroke:none">
      <desc
         id="desc3694">Second o of bamboo snow</desc>
    </path>
    <path
       inkscape:connector-curvature="0"
       d="m 140.4,19.5 c 1.1,0.8 3,1.5 4.2,1.5 1.3,0 2.6,0.5 3,1.1 0.4,0.8 0.9,0.7 1.5,-0.2 1.4,-2.3 1.1,-2.5 -3,-2.1 -2.1,0.2 -4.2,-0.1 -4.5,-0.7 -0.4,-0.6 -1.3,-1.1 -1.9,-1.1 -0.7,0 -0.3,0.7 0.7,1.5 z"
       id="left-beard-accent"
       style="fill:#000000;stroke:none">
      <desc
         id="desc3696">left whiskers</desc>
    </path>
    <path
       inkscape:connector-curvature="0"
       d="m 161.1,18.7 c -0.1,0.7 -1.1,1.3 -2.3,1.3 -2.3,0.1 -2.3,0.1 -0.3,1.5 1.7,1.4 2,1.3 2.8,0 0.5,-0.9 0.6,-2.1 0.3,-2.8 -0.3,-0.9 -0.5,-0.9 -0.5,0 z"
       id="path3508"
       style="fill:#000000;stroke:none" />
    <path
       inkscape:connector-curvature="0"
       d="m 94.6,24.1 c -1.9,1.9 -1.9,1.9 0.9,4.9 2.2,2.3 3.1,2.7 4.2,1.8 0.8,-0.6 1.2,-1.7 0.9,-2.5 -0.3,-0.7 0.1,-1.3 0.9,-1.3 1.8,0 1.8,-0.5 0.5,-3.1 -1.3,-2.4 -4.9,-2.4 -7.4,0.2 z m 6.2,1 c 0.2,1 0.1,1.1 -0.5,0.2 -0.6,-0.8 -1.4,-0.9 -2.3,-0.3 -0.8,0.6 -1,1 -0.4,1 1.5,0 2.6,2.7 1.5,3.4 -0.4,0.3 -1.7,-0.1 -2.7,-0.8 -1.8,-1.4 -1.8,-1.5 0,-3.5 2.1,-2.3 3.7,-2.3 4.4,0 z"
       id="bamboo-s-now"
       style="fill:#000000;stroke:none">
      <desc
         id="desc3690">the s of bamboo snow</desc>
    </path>
    <path
       inkscape:connector-curvature="0"
       d="m 102.7,31.8 c -2.6,2.9 -2.2,4.5 1.1,3.7 2.1,-0.5 2.4,-0.4 1.5,0.6 -1.4,1.4 -0.6,3.9 1.3,3.9 1.9,0 4.4,-3.9 3.7,-5.9 -0.7,-1.9 -3.2,-4.1 -4.8,-4.1 -0.7,0 -1.9,0.8 -2.8,1.8 z m 5.3,1.7 c 1.3,1.6 0.7,4.5 -0.9,4.5 -0.5,0 -0.7,-1 -0.3,-2.2 0.4,-1.8 0.2,-2 -1.6,-1.6 -2.1,0.6 -2.9,-0.2 -1.5,-1.5 1.1,-1.1 3,-0.8 4.3,0.8 z"
       id="bamboo-s-n-ow"
       style="fill:#000000;stroke:none">
      <desc
         id="desc3686">The n in bamboo snow</desc>
    </path>
    <path
       inkscape:connector-curvature="0"
       d="m 110.1,40.8 c -1.3,2.4 1.2,6.2 3.9,6.2 2.4,0 3.8,-4.4 2,-6.5 -1.7,-2.1 -4.7,-1.9 -5.9,0.3 z m 4.7,2 c 0.2,1.4 -0.2,2.2 -1.2,2.2 -1.9,0 -2.9,-1.7 -2.2,-3.6 0.8,-2.2 3,-1.2 3.4,1.4 z"
       id="bamboo-sn-o-w"
       style="fill:#000000;stroke:none">
      <desc
         id="desc3682">third o of bamboo snow</desc>
    </path>
    <path
       inkscape:connector-curvature="0"
       d="m 120.5,44.8 c -3.7,2.7 -4.1,7.2 -0.5,7.2 1.1,0 1.7,0.7 1.6,1.7 -0.2,2.6 3,2.7 5.3,0.2 2.7,-3 2.6,-3.7 -0.5,-4.9 -1.4,-0.6 -2.8,-1.9 -3.1,-3 -0.6,-2.1 -1.2,-2.4 -2.8,-1.2 z m 2.5,3.6 c 0.7,1.4 1.8,2.2 2.6,1.9 2.2,-0.8 1.6,2.5 -0.6,3.7 -1.7,0.9 -2,0.8 -2,-1 0,-1.3 -0.7,-2 -2,-2 -1.3,0 -2,-0.7 -2,-1.8 0,-3.8 2.1,-4.2 4,-0.8 z"
       id="path3516"
       style="fill:#000000;stroke:none" />
    <path
       inkscape:connector-curvature="0"
       d="m 129.3,55.2 c -1.5,1.8 -1.9,3.2 -1.6,6 0.5,4 2.3,5.3 2.3,1.7 0,-1.7 0.3,-1.9 1.4,-1 1.2,1 1.7,0.8 2.7,-1 1,-1.9 0.9,-2.5 -0.7,-3.6 -1.6,-1.2 -1.6,-1.3 0.9,-1.3 1.5,0 2.7,-0.5 2.7,-1 0,-0.6 -0.6,-1 -1.4,-1 -0.8,0 -2.1,-0.2 -2.8,-0.5 -0.8,-0.3 -2.3,0.5 -3.5,1.7 z m 4.3,4 c 0.5,0.7 0.3,0.8 -0.6,0.3 -1,-0.6 -1.2,-0.4 -0.6,1 0.5,1.4 0.4,1.6 -0.7,0.7 -0.8,-0.7 -1.7,-0.9 -2,-0.5 -0.4,0.3 -0.7,0.1 -0.7,-0.5 0,-0.9 1.4,-1.9 3.2,-2.1 0.4,-0.1 1,0.4 1.4,1.1 z"
       id="shaka"
       style="fill:#000000;stroke:none">
      <desc
         id="desc3676">mini shaka sign</desc>
    </path>
    <path
       inkscape:connector-curvature="0"
       d="m 223,-70.6 c 0,0.8 -3.2,7.8 -7.1,15.6 -6.2,12.4 -7.1,14.9 -7.5,21.1 -1,14.8 -7.7,30.6 -17.4,41.2 -2.8,3 -5,5.9 -5,6.5 0,2 8.9,20.2 9.8,20.2 1.7,0 14.1,-13 18.1,-18.8 13,-19.2 19.3,-44.1 16.2,-64.2 -1.5,-9.8 -5.1,-23 -6.2,-23 -0.5,0 -0.9,0.6 -0.9,1.4 z m 3.5,9.3 c 2.7,10.1 3.2,30.9 1,41.4 -2.8,14.3 -9.2,27.7 -18.7,39.6 -4.6,5.8 -12.4,13 -13.3,12.2 -0.2,-0.2 -2.1,-4.5 -4.3,-9.5 l -3.9,-9 4.8,-5.2 c 9.4,-10.2 16.1,-25.6 17.4,-40.2 0.6,-6.4 1.7,-9.4 7.1,-20.7 3.5,-7.2 6.4,-13.6 6.4,-14.2 0,-0.6 0.4,-1.1 0.9,-1.1 0.5,0 1.7,3 2.6,6.7 z"
       id="right-bamboo"
       style="fill:#000000;stroke:none">
      <desc
         id="desc3662">right side of bamboo halo</desc>
    </path>
  </g>
</svg>
