<?xml version="1.0" encoding="UTF-8" standalone="no"?>
<!-- Created with Inkscape (http://www.inkscape.org/) -->

<svg
   xmlns:dc="http://purl.org/dc/elements/1.1/"
   xmlns:cc="http://creativecommons.org/ns#"
   xmlns:rdf="http://www.w3.org/1999/02/22-rdf-syntax-ns#"
   xmlns:svg="http://www.w3.org/2000/svg"
   xmlns="http://www.w3.org/2000/svg"
   xmlns:sodipodi="http://sodipodi.sourceforge.net/DTD/sodipodi-0.dtd"
   xmlns:inkscape="http://www.inkscape.org/namespaces/inkscape"
   width="210mm"
   height="297mm"
   viewBox="0 0 744.09448819 1052.3622047"
   id="svg4604"
   version="1.1"
   inkscape:version="0.91 r13725"
   sodipodi:docname="drawing.svg">
  <defs
     id="defs4606" />
  <sodipodi:namedview
     id="base"
     pagecolor="#ffffff"
     bordercolor="#666666"
     borderopacity="1.0"
     inkscape:pageopacity="0.0"
     inkscape:pageshadow="2"
     inkscape:zoom="0.35"
     inkscape:cx="359.28571"
     inkscape:cy="405.71429"
     inkscape:document-units="px"
     inkscape:current-layer="layer1"
     showgrid="false"
     inkscape:window-width="1280"
     inkscape:window-height="710"
     inkscape:window-x="0"
     inkscape:window-y="1"
     inkscape:window-maximized="1" />
  <metadata
     id="metadata4609">
    <rdf:RDF>
      <cc:Work
         rdf:about="">
        <dc:format>image/svg+xml</dc:format>
        <dc:type
           rdf:resource="http://purl.org/dc/dcmitype/StillImage" />
        <dc:title></dc:title>
      </cc:Work>
    </rdf:RDF>
  </metadata>
  <g
     inkscape:label="Layer 1"
     inkscape:groupmode="layer"
     id="layer1">
    <path
       style="fill:none;fill-rule:evenodd;stroke:#000000;stroke-width:1px;stroke-linecap:butt;stroke-linejoin:miter;stroke-opacity:1"
         d="m 141.69725,162.14278 c -2.03316,-4.62508 -3.69664,-8.7901 -3.69664,-9.25561 0,-0.4655 0.98849,-1.78427 2.19664,-2.93058 3.38961,-3.21612 8.76152,-10.68958 11.51259,-16.01646 4.40847,-8.5361 6.82371,-16.45428 8.04248,-26.36669 0.82117,-6.67869 1.80632,-9.469436 8.13348,-23.040782 2.85596,-6.125841 5.19265,-11.458198 5.19265,-11.849682 0,-0.391484 0.26123,-0.71179 0.58049,-0.71179 0.75003,0 2.85818,6.838503 3.80391,12.339336 1.19497,6.950464 0.98568,29.224098 -0.33205,35.339868 -3.64345,16.90966 -12.29949,33.12252 -24.02812,45.00492 -3.20122,3.24319 -6.24528,5.89671 -6.76459,5.89671 -0.63324,0 -2.16168,-2.76956 -4.64084,-8.40924 z"
       id="onlypath"
       inkscape:connector-curvature="0" />
  </g>
</svg>
